<svg width="2142" height="2142" viewBox="0 0 2142 2142" fill="none" xmlns="http://www.w3.org/2000/svg">
<g clip-path="url(#clip0_1513_1441)">
<rect width="2142" height="2142" fill="#031C4B"/>
<path d="M161 583H2239V2693L1306.5 2347L161 583Z" fill="#094EA1"/>
<path d="M1270.5 491.15C1270.5 537.03 1233.92 567.1 1175.95 567.1C1117.98 567.1 1080.78 536.41 1076.75 487.12H1135.96C1136.58 508.2 1150.53 521.53 1174.71 521.53C1194.86 521.53 1208.19 513.78 1208.19 499.83C1208.19 490.22 1198.58 483.09 1185.56 480.61L1144.95 472.86C1109.3 466.04 1085.74 445.27 1085.74 409.31C1085.74 367.77 1122.32 338.63 1172.23 338.63C1225.24 338.63 1263.37 369.01 1266.78 417.06H1207.57C1206.02 396.91 1192.38 383.89 1172.85 383.89C1155.49 383.89 1144.95 393.19 1144.95 405.28C1144.95 415.2 1154.87 421.09 1166.65 423.26L1209.74 431.63C1249.42 439.38 1270.5 458.91 1270.5 491.15ZM1439.56 564L1425.92 522.77H1347.8L1333.85 564H1274.64L1357.1 341.42H1421.27L1502.8 564H1439.56ZM1387.48 405.9L1363.61 476.58H1410.73L1387.48 405.9ZM1692.73 341.42L1613.37 564H1549.51L1470.77 341.42H1534.32L1583.3 495.49L1633.83 341.42H1692.73ZM1872.15 513.16V564H1714.67V341.42H1869.98V392.26H1773.26V424.19H1860.99V475.03H1773.26V513.16H1872.15ZM740.693 864H653.893V641.42H740.693C811.063 641.42 855.393 686.68 855.393 751.47C855.393 816.26 809.513 864 740.693 864ZM712.483 691.95V813.47H737.283C776.033 813.47 795.253 793.32 795.253 751.47C795.253 712.1 775.413 691.95 737.283 691.95H712.483ZM1018.46 864L1004.82 822.77H926.696L912.746 864H853.536L935.996 641.42H1000.17L1081.7 864H1018.46ZM966.376 705.9L942.506 776.58H989.626L966.376 705.9ZM1257.48 864H1105.27V641.42H1163.86V810.99H1257.48V864ZM1440.63 864H1288.42V641.42H1347.01V810.99H1440.63V864ZM1616.66 864L1603.02 822.77H1524.9L1510.95 864H1451.74L1534.2 641.42H1598.37L1679.9 864H1616.66ZM1564.58 705.9L1540.71 776.58H1587.83L1564.58 705.9ZM1875.67 791.15C1875.67 837.03 1839.09 867.1 1781.12 867.1C1723.15 867.1 1685.95 836.41 1681.92 787.12H1741.13C1741.75 808.2 1755.7 821.53 1779.88 821.53C1800.03 821.53 1813.36 813.78 1813.36 799.83C1813.36 790.22 1803.75 783.09 1790.73 780.61L1750.12 772.86C1714.47 766.04 1690.91 745.27 1690.91 709.31C1690.91 667.77 1727.49 638.63 1777.4 638.63C1830.41 638.63 1868.54 669.01 1871.95 717.06H1812.74C1811.19 696.91 1797.55 683.89 1778.02 683.89C1760.66 683.89 1750.12 693.19 1750.12 705.28C1750.12 715.2 1760.04 721.09 1771.82 723.26L1814.91 731.63C1854.59 739.38 1875.67 758.91 1875.67 791.15ZM1236.28 1168.65C1173.04 1168.65 1123.13 1117.81 1123.13 1052.4C1123.13 987.3 1173.04 936.77 1236.28 936.77C1297.35 936.77 1344.47 977.38 1351.6 1036.28H1289.6C1284.95 1008.38 1264.18 989.16 1236.9 989.16C1204.04 989.16 1183.27 1014.58 1183.27 1052.4C1183.27 1090.53 1204.04 1116.26 1236.9 1116.26C1263.87 1116.26 1284.64 1097.04 1289.6 1068.83H1351.6C1344.16 1128.35 1297.35 1168.65 1236.28 1168.65ZM1440.56 1164H1381.97V941.42H1440.56V1164ZM1593.73 1164H1535.14V994.43H1466.94V941.42H1661.93V994.43H1593.73V1164ZM1804.28 1080.3V1164H1745.69V1080.3L1667.88 941.42H1731.12L1777 1026.67L1823.81 941.42H1882.71L1804.28 1080.3ZM1123.29 1464H1064.7V1241.42H1123.29V1324.19H1205.44V1241.42H1264.03V1464H1205.44V1375.03H1123.29V1464ZM1452.58 1464L1438.94 1422.77H1360.82L1346.87 1464H1287.66L1370.12 1241.42H1434.29L1515.82 1464H1452.58ZM1400.5 1305.9L1376.63 1376.58H1423.75L1400.5 1305.9ZM1691.6 1464H1539.39V1241.42H1597.98V1410.99H1691.6V1464ZM1874.76 1464H1722.55V1241.42H1781.14V1410.99H1874.76V1464Z" fill="white"/>
<rect x="1011" y="1029" width="873" height="57" rx="28.5" fill="#FF0000" fill-opacity="0.75"/>
<rect x="1011" y="1331" width="873" height="57" rx="28.5" fill="#FF0000" fill-opacity="0.75"/>
</g>
<defs>
<clipPath id="clip0_1513_1441">
<rect width="2142" height="2142" fill="white"/>
</clipPath>
</defs>
</svg>
